<svg width="29" height="35" viewBox="0 0 29 35" fill="none" xmlns="http://www.w3.org/2000/svg">
<path d="M25.8303 2.02163H20.0601V0.717155C20.0601 0.348352 19.6748 0.0410156 19.1932 0.0410156H9.45651C8.98368 0.0410156 8.58966 0.341522 8.58966 0.717155V2.02163H3.18719C1.43599 2.02163 0 3.13487 0 4.50764V9.2611V10.5451V32.1406C0 33.6568 1.58484 34.8929 3.52868 34.8929H25.4713C27.4151 34.8929 29 33.6568 29 32.1406V10.5451V9.2611V4.50764C29.0087 3.13487 27.5815 2.02163 25.8303 2.02163ZM27.2838 32.1474C27.2838 32.926 26.4695 33.5543 25.48 33.5543H3.54619C2.548 33.5543 1.74245 32.9192 1.74245 32.1474V10.5451V9.93041H21.4435C21.9163 9.93041 22.3104 9.62991 22.3104 9.25427C22.3104 8.88547 21.9251 8.57813 21.4435 8.57813H1.74245V4.50764C1.74245 3.8793 2.39915 3.36708 3.20471 3.36708H8.60717V4.41202C8.60717 4.78082 8.99244 5.08816 9.47402 5.08816H10.3584C10.8312 5.08816 11.2252 4.78765 11.2252 4.41202C11.2252 4.03639 10.84 3.73588 10.3584 3.73588L10.3409 1.38647H18.3526V3.73588H13.6769C13.2041 3.73588 12.8101 4.03639 12.8101 4.41202C12.8101 4.78765 13.1953 5.08816 13.6769 5.08816H19.2107C19.6835 5.08816 20.0776 4.78765 20.0776 4.41202V3.36708H25.8478C26.6533 3.36708 27.3101 3.8793 27.3101 4.50764V8.59179H24.7708C24.298 8.59179 23.904 8.8923 23.904 9.26793C23.904 9.63673 24.2892 9.94407 24.7708 9.94407H27.3101V10.5587V32.1474H27.2838Z" fill="#29B39A"/>
<path d="M10.3405 14.3149H5.16567C4.69285 14.3149 4.29883 14.6154 4.29883 14.9911V19.0274C4.29883 19.3962 4.68409 19.7036 5.16567 19.7036H10.3405C10.8133 19.7036 11.2073 19.403 11.2073 19.0274V14.9911C11.1986 14.6154 10.8133 14.3149 10.3405 14.3149ZM9.47364 18.3513H6.02377V15.6604H9.47364V18.3513Z" fill="#29B39A"/>
<path d="M10.3405 23.7944H5.16567C4.69285 23.7944 4.29883 24.0949 4.29883 24.4706V28.5069C4.29883 28.8757 4.68409 29.1831 5.16567 29.1831H10.3405C10.8133 29.1831 11.2073 28.8826 11.2073 28.5069V24.4706C11.1986 24.0949 10.8133 23.7944 10.3405 23.7944ZM9.47364 27.824H6.02377V25.1331H9.47364V27.824Z" fill="#29B39A"/>
<path d="M24.7362 16.3364H17.5387C17.0659 16.3364 16.6719 16.6369 16.6719 17.0126C16.6719 17.3882 17.0571 17.6888 17.5387 17.6888H24.7362C25.209 17.6888 25.603 17.3882 25.603 17.0126C25.603 16.6369 25.209 16.3364 24.7362 16.3364Z" fill="#29B39A"/>
<path d="M13.6588 17.6819H14.7358C15.2087 17.6819 15.6027 17.3814 15.6027 17.0057C15.6027 16.6301 15.2174 16.3296 14.7358 16.3296H13.6588C13.186 16.3296 12.792 16.6301 12.792 17.0057C12.792 17.3814 13.186 17.6819 13.6588 17.6819Z" fill="#29B39A"/>
<path d="M24.7359 25.8096H23.6764C23.2036 25.8096 22.8096 26.1101 22.8096 26.4857C22.8096 26.8613 23.1948 27.1618 23.6764 27.1618H24.7359C25.2087 27.1618 25.6027 26.8613 25.6027 26.4857C25.6027 26.1101 25.2087 25.8096 24.7359 25.8096Z" fill="#29B39A"/>
<path d="M20.6286 25.8096H13.6588C13.186 25.8096 12.792 26.1101 12.792 26.4857C12.792 26.8613 13.1773 27.1618 13.6588 27.1618H20.6286C21.1015 27.1618 21.4955 26.8613 21.4955 26.4857C21.4955 26.1101 21.1102 25.8096 20.6286 25.8096Z" fill="#29B39A"/>
</svg>
