<svg width="27" height="27" viewBox="0 0 27 27" fill="none" xmlns="http://www.w3.org/2000/svg">
<path d="M13.3766 0.00504689C13.8927 0.112094 13.9743 1.01655 13.3044 1.0625C10.8054 1.0625 8.30637 1.03939 5.80737 1.06277C3.353 1.10075 1.10714 3.27702 1.08562 5.814C1.06756 10.8019 1.04392 15.7903 1.08589 20.7782C1.12467 23.2347 3.2417 25.4756 5.83712 25.5H13.3044C13.3044 25.5 13.864 25.632 13.8343 26.0674C13.8162 26.3338 13.5785 26.5436 13.3044 26.5625C10.8011 26.5625 8.29761 26.5853 5.79436 26.562C2.79731 26.5158 0.0499501 23.9153 0.023122 20.7549C0.00505948 15.7603 -0.0185812 10.7658 0.0236532 5.77123C0.0706688 2.77153 2.66981 0.02975 5.83048 0H13.3044C13.3285 0.00159375 13.3527 0.00318751 13.3766 0.00504689ZM24.7719 12.75L17.1788 5.15684C17.0739 5.04369 17.0592 4.99428 17.0377 4.9053C16.9623 4.59133 17.1607 4.26541 17.5544 4.25C17.5682 4.25053 17.5823 4.25106 17.5961 4.25159C17.7175 4.26594 17.7926 4.27869 17.93 4.40566L26.43 12.9057C26.4958 12.9768 26.5325 13.0626 26.5452 13.153C26.5915 13.3195 26.5617 13.5078 26.43 13.6568L17.93 22.1568C17.7084 22.3521 17.6051 22.3369 17.4386 22.2998C17.0723 22.2179 16.9062 21.7146 17.1788 21.4057L24.7719 13.8125H4.80437C4.80437 13.8125 4.48828 13.7748 4.35573 13.566C4.15306 13.2465 4.31243 12.7808 4.80437 12.75H24.7719Z" fill="white"/>
</svg>
