<svg width="25" height="25" viewBox="0 0 25 25" fill="none" xmlns="http://www.w3.org/2000/svg">
<path d="M21.6461 4.45879C21.9512 4.15372 21.9512 3.65911 21.6461 3.35404C21.341 3.04898 20.8464 3.04898 20.5413 3.35404L3.3538 20.5415C3.04873 20.8466 3.04873 21.3412 3.3538 21.6463C3.65886 21.9514 4.15348 21.9514 4.45854 21.6463L21.6461 4.45879Z" fill="#435A6F" fill-opacity="0.9"/>
<path d="M4.45854 3.35404C4.15348 3.04898 3.65886 3.04898 3.3538 3.35404C3.04873 3.65911 3.04873 4.15372 3.3538 4.45879L20.5413 21.6463C20.8464 21.9514 21.341 21.9514 21.6461 21.6463C21.9512 21.3412 21.9512 20.8466 21.6461 20.5415L4.45854 3.35404Z" fill="#435A6F" fill-opacity="0.9"/>
</svg>
