<svg width="20" height="20" viewBox="0 0 20 20" fill="none" xmlns="http://www.w3.org/2000/svg">
<path d="M10 0C4.5 0 0 4.5 0 10C0 15.5 4.5 20 10 20C15.5 20 20 15.5 20 10C20 4.5 15.5 0 10 0ZM10 17.5C5.83333 17.5 2.5 14.1667 2.5 10C2.5 5.83333 5.83333 2.5 10 2.5C14.1667 2.5 17.5 5.83333 17.5 10C17.5 14.1667 14.1667 17.5 10 17.5Z" fill="#435A6F" fill-opacity="0.9"/>
<path d="M11.6663 9.33335V5.83335C11.6663 4.91669 10.9163 4.16669 9.99967 4.16669C9.08301 4.16669 8.33301 4.91669 8.33301 5.83335V10C8.33301 10.4167 8.49967 10.8334 8.83301 11.1667L11.333 13.6667C11.6663 14 12.083 14.1667 12.4997 14.1667C12.9163 14.1667 13.333 14 13.6663 13.6667C14.333 13 14.333 12 13.6663 11.3334L11.6663 9.33335Z" fill="#435A6F" fill-opacity="0.9"/>
</svg>
