<svg width="22" height="22" viewBox="0 0 22 22" fill="none" xmlns="http://www.w3.org/2000/svg">
<path d="M5.82789 15.0209L13.0252 6.98907C13.1981 6.79492 13.4046 6.64065 13.6326 6.53531C13.8607 6.42998 14.1056 6.37572 14.353 6.37572C14.6004 6.37572 14.8453 6.42998 15.0734 6.53531C15.3014 6.64065 15.5079 6.79492 15.6808 6.98907C16.0328 7.38594 16.2298 7.9178 16.2298 8.4715C16.2298 9.0252 16.0328 9.55706 15.6808 9.95394L7.03179 19.5921C5.46281 21.3463 3.26797 21.4416 1.96411 19.9878C0.66024 18.5339 0.56897 16.5224 2.37265 14.5252L13.1295 2.50839C13.5535 2.03102 14.0604 1.6516 14.6202 1.39254C15.1801 1.13347 15.7816 1 16.3892 1C16.9968 1 17.5983 1.13347 18.1582 1.39254C18.718 1.6516 19.2249 2.03102 19.6489 2.50839C20.5151 3.4816 21 4.78772 21 6.14775C21 7.50778 20.5151 8.8139 19.6489 9.7871L10.2654 20.2738" stroke="#50657D" stroke-width="2" stroke-miterlimit="10" stroke-linecap="round"/>
</svg>
