<svg width="20" height="26" viewBox="0 0 20 26" fill="none" xmlns="http://www.w3.org/2000/svg">
<path d="M10 0C4.47705 0 0 4.00136 0 8.9375C0 13.8736 10 26 10 26C10 26 20 13.8736 20 8.9375C20 4.00136 15.523 0 10 0ZM1.81818 8.9375C1.81818 4.90506 5.48818 1.625 10 1.625C14.5118 1.625 18.1818 4.90506 18.1818 8.9375C18.1818 11.7463 13.6345 18.5272 10 23.2046C6.36545 18.5272 1.81818 11.7463 1.81818 8.9375ZM10 4.875C7.48932 4.875 5.45455 6.69358 5.45455 8.9375C5.45455 11.1814 7.48932 13 10 13C12.5107 13 14.5455 11.1814 14.5455 8.9375C14.5455 6.69358 12.5107 4.875 10 4.875ZM10 11.375C8.49614 11.375 7.27273 10.2816 7.27273 8.9375C7.27273 7.59342 8.49614 6.5 10 6.5C11.5039 6.5 12.7273 7.59342 12.7273 8.9375C12.7273 10.2816 11.5039 11.375 10 11.375Z" fill="#50657D"/>
</svg>
