<svg width="20" height="20" viewBox="0 0 20 20" fill="none" xmlns="http://www.w3.org/2000/svg">
<path d="M7.14026 8.26597H15.5322C15.764 8.26597 15.9517 8.07976 15.9517 7.84988C15.9517 7.61999 15.764 7.43384 15.5322 7.43384H7.14026C6.90846 7.43384 6.7207 7.61999 6.7207 7.84988C6.7207 8.07976 6.90846 8.26597 7.14026 8.26597Z" fill="#50657D"/>
<path d="M8.46582 10.6772C8.46582 10.9071 8.65409 11.0933 8.8859 11.0933H16.7498C16.9816 11.0933 17.1698 10.9071 17.1698 10.6772C17.1698 10.4473 16.9816 10.2606 16.7498 10.2606H8.8859C8.65409 10.2606 8.46582 10.4473 8.46582 10.6772Z" fill="#50657D"/>
<path d="M14.93 13.5039C14.93 13.274 14.7423 13.0878 14.5105 13.0878H7.14026C6.90846 13.0878 6.7207 13.274 6.7207 13.5039C6.7207 13.7337 6.90841 13.9205 7.14026 13.9205H14.5105C14.7423 13.9205 14.93 13.7338 14.93 13.5039Z" fill="#50657D"/>
<path d="M17.1701 16.3311C17.1701 16.1013 16.9818 15.9151 16.75 15.9151H9.84339C9.61159 15.9151 9.42383 16.1013 9.42383 16.3311C9.42383 16.561 9.61153 16.7472 9.84339 16.7472H16.75C16.9819 16.7472 17.1701 16.561 17.1701 16.3311Z" fill="#50657D"/>
<path d="M20 17.0657V6.0448C20 4.42704 18.5542 3.11043 16.776 3.11043H15.8927V2.93437C15.8927 1.31605 14.447 0 12.6688 0H11.478H4.65394H3.22399C1.44628 0 0 1.31605 0 2.93437V13.9552C0 15.573 1.44634 16.8896 3.22399 16.8896H4.10715V17.0657C4.10715 18.684 5.55349 20 7.33119 20H8.76114H15.5852H16.1987H16.776C18.5542 20 20 18.684 20 17.0657ZM15.5852 19.0395H8.76114H7.33119C6.13305 19.0395 5.16226 18.1558 5.16226 17.0657V16.8896V15.929V6.0448C5.16226 4.95469 6.13305 4.07099 7.33119 4.07099H8.76114H14.8377H15.5852H15.8927H16.776C17.9741 4.07099 18.9449 4.95469 18.9449 6.0448V17.0657C18.9449 18.1558 17.9741 19.0395 16.776 19.0395H16.1987H15.5852Z" fill="#50657D"/>
</svg>
