<svg width="37" height="37" viewBox="0 0 37 37" fill="none" xmlns="http://www.w3.org/2000/svg">
<path d="M26.5938 34.6875L18.5 31.2188L10.4062 34.6875V18.5H26.5938V34.6875Z" fill="#FFC661"/>
<path d="M26.5938 35.8438C26.4388 35.8435 26.2854 35.812 26.1428 35.7512L18.5 32.4791L10.8572 35.7512C10.6815 35.8257 10.49 35.8555 10.3 35.8379C10.11 35.8204 9.92722 35.7561 9.76808 35.6507C9.60894 35.5454 9.47835 35.4023 9.38795 35.2343C9.29755 35.0662 9.25016 34.8783 9.25 34.6875V18.5C9.25 18.1933 9.37182 17.8992 9.58866 17.6824C9.8055 17.4656 10.0996 17.3438 10.4062 17.3438H26.5938C26.9004 17.3438 27.1945 17.4656 27.4113 17.6824C27.6282 17.8992 27.75 18.1933 27.75 18.5V34.6875C27.749 34.8779 27.701 35.0652 27.6102 35.2326C27.5195 35.4 27.3887 35.5424 27.2297 35.6472C27.0416 35.7736 26.8204 35.842 26.5938 35.8438ZM18.5 30.0625C18.655 30.0628 18.8083 30.0943 18.9509 30.155L25.4375 32.93V19.6562H11.5625V32.93L18.0491 30.155C18.1917 30.0943 18.345 30.0628 18.5 30.0625Z" fill="#6D6DAA"/>
<path d="M18.5 25.4375C24.8858 25.4375 30.0625 20.2608 30.0625 13.875C30.0625 7.48921 24.8858 2.3125 18.5 2.3125C12.1142 2.3125 6.9375 7.48921 6.9375 13.875C6.9375 20.2608 12.1142 25.4375 18.5 25.4375Z" fill="#EEF5FD"/>
<path d="M18.5 26.5938C15.9845 26.5938 13.5254 25.8478 11.4338 24.4503C9.34226 23.0527 7.71206 21.0663 6.74941 18.7423C5.78676 16.4182 5.53489 13.8609 6.02564 11.3937C6.5164 8.92651 7.72774 6.66024 9.50649 4.88149C11.2852 3.10274 13.5515 1.8914 16.0187 1.40064C18.4859 0.909887 21.0432 1.16176 23.3673 2.12441C25.6913 3.08706 27.6777 4.71726 29.0753 6.80885C30.4728 8.90043 31.2188 11.3595 31.2188 13.875C31.2188 17.2482 29.8787 20.4833 27.4935 22.8685C25.1083 25.2537 21.8732 26.5938 18.5 26.5938ZM18.5 3.46876C16.4418 3.46876 14.4299 4.07907 12.7186 5.22253C11.0073 6.36598 9.67351 7.99121 8.88588 9.89271C8.09826 11.7942 7.89218 13.8865 8.29371 15.9052C8.69524 17.9238 9.68633 19.778 11.1417 21.2333C12.597 22.6887 14.4512 23.6798 16.4698 24.0813C18.4885 24.4828 20.5808 24.2768 22.4823 23.4891C24.3838 22.7015 26.009 21.3677 27.1525 19.6564C28.2959 17.9451 28.9063 15.9332 28.9063 13.875C28.9063 11.1151 27.8099 8.46823 25.8583 6.51668C23.9068 4.56512 21.2599 3.46876 18.5 3.46876Z" fill="#6D6DAA"/>
<path d="M19.9685 8.0938L20.5466 9.95537C20.6479 10.2549 20.8385 10.5163 21.0927 10.7044C21.347 10.8925 21.6527 10.9983 21.9688 11.0076H23.8535C24.1799 11.0236 24.4938 11.1381 24.754 11.336C25.0141 11.5339 25.2082 11.8059 25.3108 12.1162C25.4134 12.4265 25.4197 12.7606 25.3288 13.0745C25.2379 13.3885 25.0541 13.6676 24.8016 13.8751L23.2753 15.0313C23.0095 15.2365 22.8135 15.5188 22.7142 15.8396C22.6149 16.1603 22.617 16.504 22.7203 16.8235L23.2985 18.6851C23.3934 18.9889 23.3932 19.3146 23.2978 19.6183C23.2024 19.9221 23.0164 20.1894 22.7648 20.3844C22.5131 20.5795 22.2078 20.6929 21.8899 20.7095C21.5719 20.7261 21.2565 20.645 20.986 20.4772L19.4597 19.321C19.2003 19.1241 18.8835 19.0174 18.5578 19.0174C18.2321 19.0174 17.9154 19.1241 17.656 19.321L16.1297 20.4772C15.8593 20.667 15.5357 20.766 15.2054 20.7602C14.8751 20.7543 14.5552 20.6438 14.2917 20.4446C14.0282 20.2453 13.8347 19.9677 13.7391 19.6515C13.6434 19.3353 13.6505 18.9969 13.7594 18.6851L14.3375 16.8235C14.4347 16.4981 14.4279 16.1506 14.3181 15.8293C14.2082 15.508 14.0008 15.229 13.7247 15.0313L12.1985 13.8751C11.9353 13.6736 11.7402 13.3963 11.6397 13.0805C11.5392 12.7647 11.538 12.4256 11.6364 12.1092C11.7347 11.7927 11.9279 11.514 12.1897 11.3108C12.4515 11.1076 12.7693 10.9896 13.1003 10.9729H15.0313C15.3611 10.9699 15.6813 10.8618 15.9454 10.6642C16.2095 10.4667 16.4037 10.19 16.4997 9.87443L17.0316 8.0938C17.1222 7.77415 17.3146 7.49278 17.5796 7.29242C17.8446 7.09205 18.1678 6.98364 18.5 6.98364C18.8323 6.98364 19.1554 7.09205 19.4204 7.29242C19.6855 7.49278 19.8779 7.77415 19.9685 8.0938Z" fill="#FFC661"/>
<path d="M15.1703 21.9687C14.6218 21.9688 14.0873 21.7947 13.6441 21.4715C13.1598 21.1334 12.7972 20.6484 12.6098 20.0883C12.4224 19.5282 12.4202 18.9227 12.6035 18.3612L13.1816 16.4996C13.211 16.4078 13.2125 16.3092 13.1857 16.2166C13.1589 16.1239 13.1052 16.0413 13.0313 15.9793L11.505 14.8231C11.0332 14.4731 10.6864 13.9807 10.5157 13.4186C10.345 12.8565 10.3594 12.2545 10.5569 11.7012C10.7286 11.1612 11.0676 10.6898 11.5249 10.3552C11.9822 10.0205 12.534 9.83997 13.1007 9.83963H15.0316C15.1157 9.8359 15.1965 9.80605 15.2628 9.75424C15.3291 9.70243 15.3776 9.63124 15.4016 9.55057L15.9797 7.689C16.1399 7.13197 16.477 6.64217 16.94 6.29353C17.4031 5.9449 17.967 5.75635 18.5466 5.75635C19.1262 5.75635 19.6901 5.9449 20.1531 6.29353C20.6162 6.64217 20.9533 7.13197 21.1135 7.689L21.6916 9.55057C21.7156 9.63124 21.7641 9.70243 21.8304 9.75424C21.8967 9.80605 21.9775 9.8359 22.0616 9.83963H23.9463C24.5129 9.83997 25.0648 10.0205 25.522 10.3552C25.9793 10.6898 26.3183 11.1612 26.49 11.7012C26.6875 12.2545 26.7019 12.8565 26.5312 13.4186C26.3605 13.9807 26.0137 14.4731 25.5419 14.8231L24.0157 15.9793C23.9418 16.0413 23.888 16.1239 23.8612 16.2166C23.8345 16.3092 23.8359 16.4078 23.8653 16.4996L24.4435 18.3612C24.6268 18.9227 24.6245 19.5282 24.4371 20.0883C24.2497 20.6484 23.8871 21.1334 23.4028 21.4715C22.9525 21.8092 22.4048 21.9918 21.8419 21.9918C21.279 21.9918 20.7313 21.8092 20.281 21.4715L18.7547 20.3153C18.6947 20.2702 18.6216 20.2459 18.5466 20.2459C18.4715 20.2459 18.3985 20.2702 18.3385 20.3153L16.8122 21.4715C16.3341 21.8125 15.7573 21.9871 15.1703 21.9687ZM13.1007 12.1637C13.0185 12.1648 12.9391 12.1941 12.876 12.2467C12.8128 12.2994 12.7697 12.3721 12.7538 12.4528C12.715 12.5443 12.7077 12.6461 12.7327 12.7423C12.7578 12.8385 12.814 12.9237 12.8925 12.9846L14.4188 14.1409C14.875 14.488 15.213 14.9674 15.3869 15.5136C15.5607 16.0599 15.5618 16.6465 15.39 17.1934L14.8003 19.0549C14.7652 19.1502 14.7631 19.2545 14.7946 19.351C14.8261 19.4476 14.8892 19.5306 14.9738 19.5868C15.0302 19.6349 15.102 19.6613 15.1761 19.6613C15.2503 19.6613 15.322 19.6349 15.3785 19.5868L16.9047 18.4306C17.3611 18.0762 17.9225 17.8838 18.5003 17.8838C19.0782 17.8838 19.6396 18.0762 20.096 18.4306L21.6222 19.5868C21.6787 19.6349 21.7504 19.6613 21.8246 19.6613C21.8987 19.6613 21.9704 19.6349 22.0269 19.5868C22.1115 19.5306 22.1746 19.4476 22.2061 19.351C22.2375 19.2545 22.2355 19.1502 22.2003 19.0549L21.6107 17.1934C21.4389 16.6465 21.44 16.0599 21.6138 15.5136C21.7876 14.9674 22.1257 14.488 22.5819 14.1409L24.1082 12.9846C24.1867 12.9237 24.2428 12.8385 24.2679 12.7423C24.293 12.6461 24.2856 12.5443 24.2469 12.4528C24.231 12.3721 24.1879 12.2994 24.1247 12.2467C24.0615 12.1941 23.9822 12.1648 23.9 12.1637H21.9691C21.3931 12.1634 20.8325 11.9777 20.3702 11.6342C19.908 11.2906 19.5686 10.8073 19.4022 10.2559L18.8125 8.38275C18.7921 8.30317 18.7459 8.23262 18.681 8.18225C18.6161 8.13187 18.5362 8.10453 18.4541 8.10453C18.3719 8.10453 18.2921 8.13187 18.2272 8.18225C18.1623 8.23262 18.116 8.30317 18.0957 8.38275L17.506 10.2559C17.3445 10.7925 17.019 11.265 16.5752 11.6072C16.1314 11.9494 15.5916 12.144 15.0316 12.1637H13.1007Z" fill="#6D6DAA"/>
</svg>
