<svg width="48" height="39" viewBox="0 0 48 39" fill="none" xmlns="http://www.w3.org/2000/svg">
<path d="M23.9998 25.999C19.2936 22.617 19.1248 22.6474 19.4773 22.3428C19.8298 22.0381 19.8523 22.2026 23.9998 25.1855L27.9936 22.3184C28.0682 22.2638 28.1664 22.2356 28.2666 22.2399C28.3668 22.2442 28.4608 22.2806 28.528 22.3412C28.5951 22.4018 28.6298 22.4816 28.6246 22.5631C28.6193 22.6445 28.5744 22.7209 28.4998 22.7754L23.9998 25.999Z" fill="#FFC219"/>
<path d="M36.5664 9.75H11.4414C10.9967 9.74968 10.562 9.64229 10.1924 9.44139C9.82274 9.2405 9.53465 8.9551 9.36452 8.62125C9.19439 8.2874 9.14983 7.92008 9.23649 7.56567C9.32314 7.21126 9.53711 6.88566 9.85138 6.63C11.3514 5.41125 11.7751 4.875 12.9414 4.875H35.0664C35.6629 4.87543 36.2348 5.06831 36.6564 5.41125L38.1564 6.63C38.4707 6.88566 38.6846 7.21126 38.7713 7.56567C38.8579 7.92008 38.8134 8.2874 38.6432 8.62125C38.4731 8.9551 38.185 9.2405 37.8154 9.44139C37.4457 9.64229 37.0111 9.74968 36.5664 9.75Z" fill="#D2423F"/>
<path d="M13.8268 5.85003C13.7432 5.7595 13.6923 5.65184 13.6798 5.53913C13.6673 5.42642 13.6936 5.31311 13.7559 5.21189C13.8182 5.11066 13.914 5.02554 14.0325 4.96604C14.1509 4.90654 14.2875 4.87503 14.4268 4.87503C12.593 4.87503 12.983 4.83237 9.17676 7.92191C9.17676 8.40675 9.41381 8.87175 9.83577 9.21459C10.2577 9.55743 10.83 9.75003 11.4268 9.75003H21.3755C16.1255 8.90909 17.063 9.36917 13.8268 5.85003Z" fill="#BA3B38"/>
<path d="M34.1471 4.87506C34.2864 4.87506 34.4229 4.90658 34.5414 4.96607C34.6598 5.02557 34.7556 5.1107 34.8179 5.21192C34.8802 5.31314 34.9065 5.42645 34.894 5.53916C34.8815 5.65187 34.8306 5.75953 34.7471 5.85006C31.0683 9.85366 32.1033 9.26866 28.3721 9.75006H37.1433C37.7401 9.75006 38.3124 9.55746 38.7343 9.21462C39.1563 8.87178 39.3933 8.40679 39.3933 7.92194C35.5421 4.79584 35.9621 4.87506 34.1471 4.87506Z" fill="#BA3B38"/>
<path d="M40.5006 8.53116C35.7944 4.70733 36.3456 4.87491 34.5006 4.87491C34.6399 4.87491 34.7764 4.90642 34.8949 4.96592C35.0134 5.02541 35.1092 5.11054 35.1714 5.21176C35.2337 5.31298 35.2601 5.4263 35.2476 5.53901C35.2351 5.65172 35.1842 5.75937 35.1006 5.84991L24.6006 17.2757C24.5308 17.3514 24.4402 17.4128 24.336 17.4551C24.2319 17.4974 24.1171 17.5194 24.0006 17.5194C23.8842 17.5194 23.7694 17.4974 23.6652 17.4551C23.5611 17.4128 23.4705 17.3514 23.4006 17.2757L12.9006 5.84686C12.8181 5.75632 12.7681 5.64897 12.7562 5.53673C12.7443 5.4245 12.7709 5.31177 12.833 5.21107C12.8952 5.11038 12.9905 5.02565 13.1083 4.96631C13.2262 4.90696 13.362 4.87533 13.5006 4.87491C12.9119 4.87491 12.0906 4.80483 11.3444 5.41116L7.50063 8.53116C7.097 8.85877 6.86163 9.29874 6.84214 9.76202C6.82264 10.2253 7.02048 10.6773 7.39563 11.0265L19.7594 22.5468H28.2419L40.6169 11.0357C40.9938 10.6848 41.1917 10.2302 41.1701 9.76469C41.1485 9.29923 40.9091 8.85802 40.5006 8.53116Z" fill="#DD6966"/>
<path d="M35.8536 5.84995C35.9242 5.77208 35.9709 5.6817 35.9899 5.58626C36.009 5.49083 35.9998 5.39308 35.9632 5.3011C35.9265 5.20912 35.8635 5.12554 35.7792 5.05726C35.695 4.98899 35.5919 4.93798 35.4786 4.90846C35.1546 4.87062 34.8267 4.85939 34.4999 4.87495C34.6392 4.87495 34.7757 4.90646 34.8942 4.96595C35.0127 5.02545 35.1084 5.11058 35.1707 5.2118C35.233 5.31302 35.2594 5.42633 35.2468 5.53905C35.2343 5.65176 35.1834 5.75941 35.0999 5.84995L24.5999 17.2757C24.5361 17.3458 35.8536 5.84995 35.8536 5.84995Z" fill="#E88F8D"/>
<path d="M8.25063 8.53118C12.8969 3.96086 12.1319 4.76829 7.50063 8.53118C7.097 8.85879 6.86163 9.29876 6.84214 9.76204C6.82264 10.2253 7.02048 10.6773 7.39563 11.0266L19.7594 22.5468L8.13438 11.0357C7.75741 10.6848 7.55952 10.2302 7.58113 9.76471C7.60273 9.29925 7.8422 8.85804 8.25063 8.53118Z" fill="#E88F8D"/>
<path d="M40.5 8.53127L40.2375 8.31799C40.4081 8.63656 40.4634 8.98803 40.397 9.33123C40.3306 9.67442 40.1452 9.99514 39.8625 10.2558L28.875 20.4903C28.1813 21.1351 27.2006 21.5297 26.1488 21.5871L19.7588 21.9375V22.5469H28.2413L40.6163 11.0358C40.9933 10.6849 41.1911 10.2303 41.1695 9.76481C41.1479 9.29934 40.9085 8.85814 40.5 8.53127Z" fill="#D2423F"/>
<path d="M24 34.125C27.3137 34.125 30 31.9424 30 29.25C30 26.5576 27.3137 24.375 24 24.375C20.6863 24.375 18 26.5576 18 29.25C18 31.9424 20.6863 34.125 24 34.125Z" fill="#FFDA75"/>
<path d="M18.1575 29.3566C18.1575 28.4382 18.4768 27.5384 19.0787 26.761C19.6806 25.9836 20.5405 25.3601 21.5594 24.9624C22.5784 24.5647 23.7148 24.4089 24.8379 24.5131C25.961 24.6172 27.0251 24.9771 27.9075 25.5511C24.0375 22.8516 18 25.0758 18 29.25C18 29.9808 18.2022 30.7022 18.5917 31.3609C18.9811 32.0197 19.5479 32.5988 20.25 33.0555C19.5937 32.5979 19.067 32.0305 18.7058 31.3921C18.3446 30.7536 18.1576 30.0593 18.1575 29.3566Z" fill="#FFE7A3"/>
<path d="M25.7623 24.5913C27.2685 25.0091 28.5088 25.8959 29.2103 27.0567C29.9118 28.2175 30.0171 29.5572 29.5029 30.781C28.9887 32.0049 27.8972 33.0126 26.4685 33.5826C25.0399 34.1526 23.391 34.2381 21.8848 33.8203C23.391 34.2381 25.0399 34.1526 26.4685 33.5826C27.8972 33.0126 28.9887 32.0049 29.5029 30.781C30.0171 29.5572 29.9118 28.2175 29.2103 27.0567C28.5088 25.8959 27.2685 25.0091 25.7623 24.5913Z" fill="#F69652"/>
<path d="M24 32.9063C23.11 32.9063 22.24 32.6918 21.4999 32.2901C20.7599 31.8883 20.1831 31.3173 19.8425 30.6492C19.5019 29.9811 19.4128 29.2459 19.5865 28.5367C19.7601 27.8275 20.1887 27.176 20.818 26.6646C21.4474 26.1533 22.2492 25.8051 23.1221 25.664C23.995 25.5229 24.8998 25.5953 25.7221 25.8721C26.5443 26.1488 27.2471 26.6174 27.7416 27.2187C28.2361 27.82 28.5 28.5269 28.5 29.25C28.5 30.2197 28.0259 31.1497 27.182 31.8354C26.3381 32.521 25.1935 32.9063 24 32.9063Z" fill="#FFC219"/>
<path d="M24.1946 25.7521C25.3399 25.7521 26.4417 26.1086 27.2734 26.7485C26.8663 26.3754 26.3695 26.0739 25.8137 25.8625C25.2579 25.6512 24.6547 25.5344 24.0413 25.5195C23.4279 25.5045 22.8172 25.5916 22.2468 25.7755C21.6763 25.9594 21.1582 26.2361 20.7243 26.5887C20.2903 26.9413 19.9497 27.3623 19.7234 27.8257C19.4971 28.2892 19.3899 28.7854 19.4083 29.2838C19.4267 29.7822 19.5704 30.2723 19.8305 30.7239C20.0906 31.1755 20.4617 31.5791 20.9209 31.9099C20.3208 31.3901 19.9208 30.7392 19.7699 30.0372C19.619 29.3352 19.724 28.6127 20.0718 27.9585C20.4196 27.3043 20.9951 26.7469 21.7276 26.3549C22.4601 25.963 23.3176 25.7534 24.1946 25.7521Z" fill="#F47C27"/>
<path d="M28.2413 23.1562H19.7588C19.5599 23.1562 19.3691 23.092 19.2285 22.9778C19.0878 22.8635 19.0088 22.7085 19.0088 22.5469C19.0088 22.3853 19.0878 22.2303 19.2285 22.116C19.3691 22.0017 19.5599 21.9375 19.7588 21.9375H28.2413C28.4402 21.9375 28.631 22.0017 28.7716 22.116C28.9123 22.2303 28.9913 22.3853 28.9913 22.5469C28.9913 22.7085 28.9123 22.8635 28.7716 22.9778C28.631 23.092 28.4402 23.1562 28.2413 23.1562Z" fill="#FFC219"/>
<path d="M19.8149 21.9862C28.6611 21.9862 28.4399 21.8856 28.8149 22.1446C28.4774 21.8399 28.8411 21.9405 19.7736 21.9405C19.6227 21.9414 19.4757 21.9793 19.3517 22.0492C19.2277 22.1191 19.1326 22.2177 19.0787 22.3323C19.0248 22.4468 19.0147 22.5719 19.0497 22.6911C19.0847 22.8104 19.1632 22.9183 19.2749 23.0008C19.1797 22.914 19.1171 22.807 19.0943 22.6923C19.0716 22.5777 19.0896 22.4601 19.1464 22.3534C19.2031 22.2468 19.2962 22.1556 19.4146 22.0905C19.5331 22.0255 19.6719 21.9892 19.8149 21.9862Z" fill="#FFCE47"/>
<path d="M28.6425 22.0319C28.7134 22.124 28.7526 22.2298 28.7562 22.3384C28.7598 22.447 28.7277 22.5544 28.663 22.6494C28.5984 22.7445 28.5037 22.8238 28.3886 22.8792C28.2736 22.9345 28.1424 22.9639 28.0088 22.9642C19.0463 22.9642 19.4288 23.0251 19.125 22.8698C19.4325 23.2628 19.1475 23.1562 28.245 23.1562C28.4072 23.1555 28.5648 23.1122 28.6941 23.0327C28.8234 22.9531 28.9175 22.8417 28.9623 22.715C29.0071 22.5884 29.0001 22.4533 28.9425 22.3302C28.8848 22.207 28.7796 22.1023 28.6425 22.0319Z" fill="#F47C27"/>
<path d="M23.3999 17.2758L12.8999 5.84695C12.8174 5.75641 12.7674 5.64906 12.7554 5.53683C12.7435 5.42459 12.7701 5.31186 12.8322 5.21117C12.8944 5.11047 12.9897 5.02574 13.1076 4.9664C13.2254 4.90706 13.3612 4.87542 13.4999 4.875C13.2674 4.875 12.8624 4.875 12.6486 4.875C12.4877 4.89559 12.3363 4.95015 12.2095 5.03323C12.0827 5.11631 11.985 5.225 11.9261 5.3484C11.8673 5.47181 11.8493 5.60561 11.8741 5.73642C11.8989 5.86722 11.9655 5.99044 12.0674 6.09375L23.3999 17.2758Z" fill="#D2423F"/>
</svg>
