<svg width="19" height="22" viewBox="0 0 19 22" fill="none" xmlns="http://www.w3.org/2000/svg">
<path fill-rule="evenodd" clip-rule="evenodd" d="M12.2911 15.4271C11.0356 16.4175 9.49952 17 7.8405 17C3.60011 17 0.162598 13.1944 0.162598 8.5C0.162598 3.80558 3.60011 0 7.8405 0C12.0809 0 15.5184 3.80558 15.5184 8.5C15.5184 10.8472 14.659 12.9722 13.2696 14.5104L18.6869 20.5078C18.9354 20.7828 18.9293 21.2239 18.6799 21.5C18.4287 21.7781 18.0292 21.7796 17.7836 21.5078L12.2911 15.4271ZM7.8405 16C11.582 16 14.6151 12.6421 14.6151 8.5C14.6151 4.35786 11.582 1 7.8405 1C4.09898 1 1.06588 4.35786 1.06588 8.5C1.06588 12.6421 4.09898 16 7.8405 16Z" fill="#90999B"/>
</svg>
