<svg width="30" height="36" viewBox="0 0 30 36" fill="none" xmlns="http://www.w3.org/2000/svg">
<path d="M15.501 17.6119C16.0874 16.9183 16.6033 16.1488 17.0385 15.3185C17.853 13.7446 18.285 11.9438 18.2885 10.1076C18.2911 9.12343 18.1646 8.14454 17.9135 7.20458C18.3969 6.44003 18.9275 5.71722 19.501 5.04184C19.86 4.5328 20.244 4.04816 20.651 3.59033C21.847 5.11366 22.5072 7.10271 22.501 9.16411C22.475 11.3407 21.7374 13.4245 20.4376 14.9931C19.1378 16.5618 17.373 17.4979 15.501 17.6119Z" fill="#005792"/>
<path d="M15 20.4566C15 20.3114 15.0875 18.7293 15.0875 18.5696C15.0875 18.4099 15 19.2228 15 18.5696H15.8375C17.8627 18.5673 19.8653 19.0627 21.7138 20.0234C23.5623 20.984 25.2147 22.3881 26.5625 24.1434C28.7744 27.0131 29.9982 30.7285 30 34.5797C30.0001 34.7061 29.9782 34.8312 29.9359 34.9476C29.8935 35.064 29.8314 35.1693 29.7533 35.2573C29.6751 35.3453 29.5826 35.4142 29.4811 35.4599C29.3796 35.5055 29.2713 35.5271 29.1625 35.5232H24.7C24.6 34.8845 24.4625 34.2459 24.3125 33.6362C23.1108 28.8913 20.4857 24.8029 16.9125 22.1113L15 20.4566Z" fill="#005792"/>
<path d="M15.549 2.60318C14.9967 1.94174 14.3943 1.33935 13.749 0.803308C15.0083 0.546336 16.3033 0.667488 17.511 1.15526C18.7186 1.64303 19.7989 2.48121 20.649 3.59021C21.8451 5.11353 22.5053 7.1026 22.499 9.164C22.473 11.3406 21.7354 13.4244 20.4356 14.993C19.1358 16.5617 17.3711 17.4978 15.499 17.6118C16.0855 16.9182 16.6014 16.1487 17.0365 15.3184C17.851 13.7445 18.283 11.9437 18.2865 10.1075C18.2891 9.12332 18.1627 8.14443 17.9115 7.20446C17.4338 5.48301 16.626 3.90979 15.549 2.60318Z" fill="#005792"/>
<path d="M20.65 3.5902C19.7998 2.48121 18.7196 1.64302 17.512 1.15526C16.3043 0.667488 15.0093 0.546336 13.75 0.803308C12.0246 1.11241 10.4495 2.12226 9.30509 3.65319C8.16064 5.18413 7.52101 7.13687 7.5 9.16399C7.52964 11.4418 8.33569 13.6131 9.74153 15.202C11.1474 16.791 13.0383 17.6679 15 17.6408C15.1664 17.6553 15.3336 17.6553 15.5 17.6408C17.3763 17.5265 19.1446 16.5862 20.4451 15.0115C21.7455 13.4367 22.4803 11.3457 22.5 9.16399C22.5062 7.10259 21.846 5.11353 20.65 3.5902ZM17.0375 15.3039C16.3861 15.5889 15.6961 15.7364 15 15.7393C13.4748 15.7588 12.0048 15.0767 10.9111 13.842C9.81745 12.6074 9.18882 10.9204 9.1625 9.14948C9.18882 7.37981 9.81785 5.69434 10.9119 4.462C12.006 3.22966 13.4759 2.55085 15 2.57415H15.55C16.316 2.66271 17.0593 2.92633 17.7372 3.34981C18.4151 3.7733 19.0142 4.3483 19.5 5.04171C20.3629 6.20394 20.8376 7.68749 20.8375 9.22205C20.8157 10.5671 20.4399 11.8723 19.7606 12.9621C19.0813 14.0519 18.1311 14.8741 17.0375 15.3184V15.3039Z" fill="black"/>
<path d="M26.5625 24.1433C25.2147 22.388 23.5623 20.9839 21.7138 20.0232C19.8653 19.0626 17.8627 18.5671 15.8375 18.5695H14.1625C10.4579 18.5191 6.88721 20.1758 4.23261 23.1767C1.578 26.1776 0.0559793 30.278 9.10876e-08 34.5796C-5.14413e-05 34.706 0.0217632 34.8311 0.0641496 34.9475C0.106536 35.0639 0.16863 35.1692 0.246745 35.2572C0.324861 35.3452 0.417406 35.4141 0.518887 35.4597C0.620368 35.5054 0.728716 35.5269 0.8375 35.5231H29.1625C29.2713 35.5269 29.3796 35.5054 29.4811 35.4597C29.5826 35.4141 29.6751 35.3452 29.7533 35.2572C29.8314 35.1692 29.8935 35.0639 29.9359 34.9475C29.9782 34.8311 30.0001 34.706 30 34.5796C29.9982 30.7284 28.7744 27.0129 26.5625 24.1433ZM1.7 33.6361C1.9564 30.0084 3.38996 26.6293 5.71062 24.1824C8.03129 21.7356 11.0657 20.4038 14.2 20.4564H15.875C18.9957 20.4588 22.007 21.7914 24.3375 24.2013C26.6852 26.615 28.1218 30.0036 28.3375 33.6361H1.7Z" fill="black"/>
</svg>
