<svg width="29" height="33" viewBox="0 0 29 33" fill="none" xmlns="http://www.w3.org/2000/svg">
<path d="M19.9255 23.2697C20.0692 22.1758 19.7937 21.0947 19.1706 20.271C18.6914 19.6275 17.9845 19.2671 17.2416 19.2671H17.2296C16.4988 19.2671 15.7918 19.6275 15.3126 20.2452C14.2223 21.661 14.1025 23.5014 15.025 25.0716C15.3845 25.6893 15.9596 26.114 16.6305 26.2556C16.7983 26.2942 16.954 26.3071 17.1218 26.3071C17.625 26.3071 18.1043 26.1398 18.5236 25.8309C19.2904 25.2517 19.7937 24.3251 19.9255 23.2697ZM17.8287 24.7627C17.5531 24.9686 17.2057 25.0458 16.8702 24.9815C16.5227 24.9042 16.2352 24.6983 16.0554 24.3766C15.4204 23.2826 15.4923 22.0599 16.2471 21.0818C16.4988 20.76 16.8582 20.567 17.2296 20.567C17.613 20.567 17.9725 20.76 18.2241 21.0947C18.6315 21.6352 18.8112 22.3559 18.7153 23.0895C18.6434 23.7845 18.3199 24.4023 17.8287 24.7627Z" fill="#435A6F" fill-opacity="0.9"/>
<path d="M28.0499 26.2821C27.2831 25.394 25.9771 25.201 25.0186 25.8316C24.2039 26.3722 23.6527 27.3117 23.497 28.4314C23.3292 29.5897 23.6288 30.7223 24.2878 31.5331C24.803 32.1766 25.4859 32.5112 26.1808 32.5112C26.6601 32.5112 27.1393 32.3568 27.5707 32.0222C28.3615 31.4173 28.8767 30.4391 28.9845 29.3323C29.0803 28.1868 28.7449 27.08 28.0499 26.2821ZM27.7744 29.1907C27.7025 29.9243 27.379 30.5678 26.8638 30.9411C26.3126 31.3529 25.6776 31.25 25.1983 30.6579C24.767 30.1302 24.5873 29.3838 24.6951 28.5987C24.803 27.8651 25.1504 27.2473 25.6536 26.9127C25.8453 26.784 26.061 26.7196 26.2887 26.7196C26.6241 26.7196 26.9357 26.8741 27.1753 27.1444C27.6306 27.6849 27.8463 28.4314 27.7744 29.1907Z" fill="#435A6F" fill-opacity="0.9"/>
<path d="M25.5686 19.3446C25.2811 19.1515 24.9096 19.2416 24.7299 19.5505L17.6608 31.5199C17.4811 31.8288 17.565 32.2278 17.8525 32.4208C17.9484 32.4852 18.0682 32.5238 18.176 32.5238C18.3797 32.5238 18.5714 32.4208 18.6912 32.2278L25.7603 20.2584C25.94 19.9366 25.8562 19.5377 25.5686 19.3446Z" fill="#435A6F" fill-opacity="0.9"/>
<path d="M11.4184 9.71749C10.4718 9.4086 8.59072 8.76509 8.59072 8.76509C8.38704 8.68786 8.14741 8.75222 7.99165 8.90666L6.1465 10.76L4.30135 8.90666C4.14559 8.73935 3.90596 8.68786 3.70228 8.76509C3.70228 8.76509 1.82119 9.4086 0.874648 9.71749C0.311519 9.89767 0 10.361 0 10.9659L0.467278 20.1167L0.479259 20.2711C0.56313 21.6354 0.778796 22.0601 1.76128 22.4462L2.2645 30.606C2.32441 31.6742 3.16311 32.5108 4.15757 32.5108H8.13543C9.12989 32.5108 9.95661 31.6742 10.0285 30.606L10.5317 22.4462C11.5142 22.0601 11.7299 21.6354 11.8137 20.2711L12.293 11.1075V10.9788C12.293 10.361 11.9695 9.89767 11.4184 9.71749ZM11.0709 10.9659L10.6036 20.0266L10.5916 20.1811C10.5317 21.0948 10.5317 21.0948 9.76491 21.3394C9.52528 21.4166 9.35754 21.6483 9.33357 21.9185L8.81837 30.5288C8.79441 30.9149 8.49487 31.2109 8.13543 31.2109H4.15757C3.79813 31.2109 3.49859 30.9149 3.47463 30.5288L2.94744 21.9314C2.93546 21.6611 2.75574 21.4295 2.51611 21.3522C1.7493 21.0948 1.7493 21.0948 1.68939 20.1939L1.21013 11.0817V10.9659H1.22211C1.92902 10.7342 3.13915 10.3224 3.72624 10.1165L5.72715 12.1242C5.9548 12.3559 6.32622 12.3559 6.55387 12.1242L8.55478 10.1165C9.14187 10.3224 10.364 10.7342 11.0589 10.9659H11.0709Z" fill="#435A6F" fill-opacity="0.9"/>
<path d="M6.14824 7.89011C7.98141 7.89011 9.46712 6.29418 9.46712 4.31215C9.46712 2.33012 7.98141 0.74707 6.14824 0.74707C4.31507 0.74707 2.81738 2.34299 2.81738 4.31215C2.81738 6.28131 4.31507 7.89011 6.14824 7.89011ZM6.14824 2.04697C7.31045 2.04697 8.26897 3.06373 8.26897 4.32502C8.26897 5.58632 7.31045 6.5902 6.14824 6.5902C4.98603 6.5902 4.02751 5.57345 4.02751 4.31215C4.02751 3.05086 4.97405 2.04697 6.14824 2.04697Z" fill="#435A6F" fill-opacity="0.9"/>
</svg>
