<svg width="48" height="48" viewBox="0 0 48 48" fill="none" xmlns="http://www.w3.org/2000/svg">
<path d="M32.73 14H32.74H34.14C35.38 14 36.39 15.01 36.39 16.26V32.67C36.39 33.92 35.38 34.93 34.14 34.93H13.26C12.01 34.93 11 33.92 11 32.67V16.26C11 15.01 12.01 14 13.26 14H14.65H16.34H31.05H32.73V14Z" stroke="#435A6F" stroke-opacity="0.9" stroke-width="0.7" stroke-miterlimit="10" stroke-linecap="round" stroke-linejoin="round"/>
<path d="M36.39 18.8799H11" stroke="#435A6F" stroke-opacity="0.9" stroke-width="0.7" stroke-miterlimit="10" stroke-linecap="round" stroke-linejoin="round"/>
<path d="M36.39 30.4792H11" stroke="#435A6F" stroke-opacity="0.9" stroke-width="0.7" stroke-miterlimit="10" stroke-linecap="round" stroke-linejoin="round"/>
<path d="M15.777 16.9854C16.1214 16.9854 16.4006 16.7061 16.4006 16.3617C16.4006 16.0173 16.1214 15.738 15.777 15.738C15.4325 15.738 15.1533 16.0173 15.1533 16.3617C15.1533 16.7061 15.4325 16.9854 15.777 16.9854Z" stroke="#435A6F" stroke-opacity="0.9" stroke-width="0.7" stroke-miterlimit="10" stroke-linecap="round" stroke-linejoin="round"/>
<path d="M31.6129 16.9854C31.9574 16.9854 32.2366 16.7061 32.2366 16.3617C32.2366 16.0173 31.9574 15.738 31.6129 15.738C31.2685 15.738 30.9893 16.0173 30.9893 16.3617C30.9893 16.7061 31.2685 16.9854 31.6129 16.9854Z" stroke="#435A6F" stroke-opacity="0.9" stroke-width="0.7" stroke-miterlimit="10" stroke-linecap="round" stroke-linejoin="round"/>
<path d="M22.6808 28.7948C22.5546 28.7948 22.4309 28.7507 22.3324 28.6685L19.3375 26.2937C19.1059 26.102 19.074 25.7582 19.2664 25.5262C19.4593 25.2942 19.8027 25.2623 20.0343 25.4555L22.5637 27.4431L27.2513 20.4378C27.4186 20.1875 27.7579 20.1198 28.0078 20.2872C28.258 20.4545 28.3253 20.793 28.158 21.0433L23.1342 28.5521C23.0482 28.6807 22.912 28.7666 22.7592 28.7887C22.7329 28.7925 22.7067 28.7948 22.6808 28.7948Z" fill="#435A6F" fill-opacity="0.9"/>
<path d="M14.7666 32.9529H20.047" stroke="#435A6F" stroke-opacity="0.9" stroke-width="0.7" stroke-miterlimit="10" stroke-linecap="round" stroke-linejoin="round"/>
<path d="M21.2334 32.9529H22.42" stroke="#435A6F" stroke-opacity="0.9" stroke-width="0.7" stroke-miterlimit="10" stroke-linecap="round" stroke-linejoin="round"/>
</svg>
