<svg width="70" height="61" viewBox="0 0 70 61" fill="none" xmlns="http://www.w3.org/2000/svg">
<g clip-path="url(#clip0)">
<path d="M70 30.4989C70 32.2464 66.5818 33.7089 66.2522 35.3732C65.9128 37.0845 68.555 39.4891 67.8975 41.0847C67.2286 42.7092 63.4506 43.0483 62.484 44.5253C61.5084 46.0161 63.0564 49.08 61.8118 50.3893C60.5672 51.6986 56.8815 50.8846 55.3949 51.9885C53.9082 53.0925 54.1895 56.4377 52.5 57.3002C50.8293 58.1548 47.6891 56.2751 45.8516 56.8664C44.046 57.4448 43.0099 60.6772 41.0743 60.9773C39.1935 61.2664 36.9732 58.5502 34.9967 58.5502C33.0202 58.5502 30.8016 61.2686 28.9192 60.9773C26.9835 60.6772 25.9474 57.447 24.1418 56.8664C22.3043 56.2751 19.1641 58.1548 17.4935 57.3002C15.8072 56.4377 16.0853 53.0896 14.6019 51.9885C13.1185 50.8875 9.43365 51.7044 8.18493 50.3893C6.93621 49.0743 8.48832 46.0161 7.51273 44.5253C6.54615 43.0483 2.76974 42.7092 2.09918 41.0847C1.44498 39.4884 4.08388 37.0845 3.74451 35.3732C3.41822 33.7089 0 32.2435 0 30.4989C0 28.7544 3.41822 27.2889 3.74778 25.6247C4.08715 23.9134 1.44498 21.5095 2.10245 19.9132C2.77138 18.2887 6.54942 17.9496 7.51601 16.4726C8.49159 14.9818 6.94357 11.9179 8.1882 10.6086C9.43283 9.29925 13.1185 10.1133 14.6051 9.00934C16.0918 7.90536 15.8105 4.56017 17.5 3.69767C19.1707 2.84311 22.3109 4.72284 24.1484 4.13145C25.9507 3.5509 26.986 0.320665 28.9224 0.0206321C30.8033 -0.268557 33.0235 2.44765 35 2.44765C36.9765 2.44765 39.1951 -0.270725 41.0776 0.0206321C43.014 0.320665 44.0493 3.5509 45.8549 4.13145C47.6924 4.72284 50.8326 2.84311 52.5033 3.69767C54.1895 4.56017 53.9115 7.90825 55.3949 9.00934C56.8783 10.1104 60.5631 9.29346 61.8118 10.6086C63.0605 11.9236 61.5084 14.9818 62.484 16.4726C63.4506 17.9496 67.227 18.2887 67.8975 19.9132C68.5518 21.5095 65.9128 23.9134 66.2522 25.6247C66.5818 27.2889 70 28.7515 70 30.4989Z" fill="#FCCE4C"/>
<path d="M35.0062 54.4304C49.9553 54.4304 62.074 43.7164 62.074 30.5001C62.074 17.2837 49.9553 6.5697 35.0062 6.5697C20.0571 6.5697 7.93848 17.2837 7.93848 30.5001C7.93848 43.7164 20.0571 54.4304 35.0062 54.4304Z" fill="url(#paint0_radial)"/>
<g style="mix-blend-mode:soft-light">
<g style="mix-blend-mode:soft-light">
<path d="M17.1963 15.1136L19.9767 12.9563L20.5336 13.5166L18.5448 15.0594L19.1671 15.6848L20.1165 14.9437C20.533 14.6208 20.9263 14.4521 21.2965 14.4377C21.6667 14.4232 21.9957 14.5598 22.2836 14.8476C22.5861 15.1522 22.6998 15.4826 22.6246 15.8388C22.5493 16.195 22.2906 16.5449 21.8485 16.8885L20.213 18.1566L17.1963 15.1136ZM21.2851 16.3998C21.4879 16.2417 21.6081 16.0853 21.6457 15.9306C21.6632 15.8532 21.6591 15.7732 21.6336 15.6976C21.608 15.622 21.562 15.553 21.4993 15.4968C21.2344 15.2303 20.8923 15.2599 20.473 15.5857L19.6765 16.2046L20.4886 17.0216L21.2851 16.3998Z" fill="#213336"/>
</g>
<g style="mix-blend-mode:soft-light">
<path d="M27.8897 12.806L25.923 13.5196V14.4594L24.918 14.8209L25.0709 10.3906L26.0399 10.0399L29.67 13.1003L28.6412 13.4726L27.8897 12.806ZM27.2756 12.2594L25.9393 11.0687L25.932 12.746L27.2756 12.2594Z" fill="#213336"/>
</g>
<g style="mix-blend-mode:soft-light">
<path d="M35.9039 8.53101L36.0977 12.5796L35.0518 12.6187L34.8948 9.33712L33.3263 9.39568L33.3337 10.2408C33.3467 10.7093 33.3166 11.1778 33.2437 11.642C33.1783 12.0034 33.0524 12.2803 32.8684 12.4777C32.6844 12.6751 32.4162 12.7814 32.0678 12.7944C31.8912 12.7973 31.7148 12.7825 31.542 12.7503L31.5698 11.955C31.632 11.9687 31.6963 11.9741 31.7603 11.9709C32.0133 11.9617 32.1834 11.8232 32.2706 11.5552C32.3578 11.2872 32.4012 10.8717 32.4006 10.3088L32.3876 8.66476L35.9039 8.53101Z" fill="#213336"/>
</g>
<g style="mix-blend-mode:soft-light">
<path d="M44.1791 10.0876L42.8314 13.9533L41.8305 13.6815L42.9247 10.5416L41.4241 10.1331L41.1117 10.9284C40.9469 11.3738 40.7413 11.8067 40.4968 12.2225C40.2989 12.542 40.0753 12.7676 39.8262 12.8992C39.5771 13.0308 39.2857 13.0513 38.952 12.9606C38.7847 12.9112 38.6242 12.8452 38.4736 12.764L38.8007 12.0237C38.8541 12.0553 38.9125 12.0797 38.9741 12.096C39.2162 12.162 39.429 12.0818 39.6128 11.8552C39.7965 11.6287 39.9947 11.2499 40.2073 10.7187L40.8165 9.16577L44.1791 10.0876Z" fill="#213336"/>
</g>
<g style="mix-blend-mode:soft-light">
<path d="M49.8402 15.1165C49.9171 15.4539 49.8021 15.7913 49.4951 16.1287C49.168 16.4859 48.7916 16.6668 48.3658 16.6717C47.94 16.6765 47.4938 16.5131 47.0272 16.1815L45.417 15.0348L48.2906 11.8827L49.1083 12.4669L48.1655 13.5007L49.0715 14.1463C49.5077 14.4567 49.7639 14.7801 49.8402 15.1165ZM48.1025 15.8243C48.3078 15.8171 48.4918 15.7253 48.6529 15.5482C48.9511 15.2204 48.8728 14.8946 48.4182 14.5707L47.674 14.0408L46.7303 15.0768L47.4736 15.6067C47.6879 15.7576 47.8975 15.8301 48.1025 15.8243ZM51.8208 14.3957L52.6386 14.9799L49.765 18.1321L48.9472 17.5479L51.8208 14.3957Z" fill="#213336"/>
</g>
</g>
</g>
<defs>
<radialGradient id="paint0_radial" cx="0" cy="0" r="1" gradientUnits="userSpaceOnUse" gradientTransform="translate(35.0062 30.5001) scale(27.0678 23.9304)">
<stop offset="0.92" stop-color="#FCCE4C"/>
<stop offset="1" stop-color="#FCBF14"/>
</radialGradient>
<clipPath id="clip0">
<rect width="70" height="61" fill="white"/>
</clipPath>
</defs>
</svg>
