<svg width="32" height="27" viewBox="0 0 32 27" fill="none" xmlns="http://www.w3.org/2000/svg">
<path d="M18.418 26.2688H13.293V19.8422H18.418V26.2688ZM31.7109 9.28128V4.55347H24.0234V7.08472H28.8281V9.28128C28.8273 10.0643 28.4727 10.815 27.8421 11.3686C27.2116 11.9223 26.3566 12.2337 25.4648 12.2344H24.0234V14.7657H25.4648C27.1209 14.7642 28.7086 14.1859 29.8796 13.1577C31.0506 12.1295 31.7092 10.7354 31.7109 9.28128ZM7.6875 12.2344H6.24609C5.35436 12.2337 4.49938 11.9223 3.86883 11.3686C3.23828 10.815 2.88366 10.0643 2.88281 9.28128V7.08472H7.6875V4.55347H0V9.28128C0.0016959 10.7354 0.660309 12.1295 1.83131 13.1577C3.00231 14.1859 4.59005 14.7642 6.24609 14.7657H7.6875V12.2344Z" fill="#C3EDF5"/>
<path d="M26.1055 12.1781C25.8945 12.2148 25.6799 12.2336 25.4648 12.2344H24.0234V14.7656H25.4648C25.6474 14.7656 25.8268 14.7656 26.0062 14.7403C26.0717 14.3293 26.1049 13.9149 26.1055 13.5V12.1781Z" fill="#87DBEC"/>
<path d="M13.293 22.2187C14.9739 22.5984 16.737 22.5984 18.418 22.2187V19.8422H13.293V22.2187Z" fill="#87DBEC"/>
<path d="M7.6875 14.7656V12.2344H6.24609C6.03099 12.2336 5.81647 12.2148 5.60547 12.1781V13.5C5.60606 13.9149 5.63923 14.3293 5.70477 14.7403C5.88414 14.7403 6.06352 14.7656 6.24609 14.7656H7.6875Z" fill="#87DBEC"/>
<path d="M7.6875 4.55347H5.60547V7.08472H7.6875V4.55347Z" fill="#87DBEC"/>
<path d="M26.1055 4.55347H24.0234V7.08472H26.1055V4.55347Z" fill="#87DBEC"/>
<path d="M25.4648 13.5C25.4648 15.7378 24.4524 17.8839 22.6503 19.4662C20.8482 21.0486 18.404 21.9375 15.8555 21.9375C13.3069 21.9375 10.8627 21.0486 9.06061 19.4662C7.25851 17.8839 6.24609 15.7378 6.24609 13.5V2.10938H25.4648V13.5Z" fill="#4D91BB"/>
<path d="M27.3867 0H4.32422V2.53125H27.3867V0Z" fill="#C3EDF5"/>
<path d="M23.543 24.4688H8.16797V27H23.543V24.4688Z" fill="#C3EDF5"/>
<path d="M15.8557 13.1681L12.3387 14.7909L13.0114 11.354L10.167 8.91841L14.0972 8.41778L15.8557 5.29028L17.6143 8.41778L21.5445 8.91841L18.7001 11.354L19.3728 14.7909L15.8557 13.1681Z" fill="#7AD0CB"/>
<path d="M6.24609 2.53125L25.4648 3.375V2.53125H6.24609Z" fill="#2175AA"/>
<path d="M13.293 24.4687L18.418 24.0693V24.4687H13.293Z" fill="#87DBEC"/>
</svg>
