<svg width="20" height="17" viewBox="0 0 20 17" fill="none" xmlns="http://www.w3.org/2000/svg">
<path d="M15.9643 6.53846C17.2026 6.53846 18.2065 5.07478 18.2065 3.26923C18.2065 1.46368 17.2026 0 15.9643 0C14.726 0 13.7222 1.46368 13.7222 3.26923C13.7222 5.07478 14.726 6.53846 15.9643 6.53846Z" fill="#50657D"/>
<path d="M15.9643 9.15387C14.8881 9.15387 14.0809 9.54618 13.4531 10.2C15.5159 11.6385 16.3231 14.1231 16.3231 14.3846V14.5154H20.0002V12.8154C20.0002 12.6846 19.0137 9.15387 15.9643 9.15387Z" fill="#50657D"/>
<path d="M4.03561 6.53846C5.27392 6.53846 6.27776 5.07478 6.27776 3.26923C6.27776 1.46368 5.27392 0 4.03561 0C2.7973 0 1.79346 1.46368 1.79346 3.26923C1.79346 5.07478 2.7973 6.53846 4.03561 6.53846Z" fill="#50657D"/>
<path d="M4.03587 9.15387C5.11211 9.15387 5.91928 9.54618 6.54709 10.2C4.4843 11.6385 3.67713 14.1231 3.67713 14.3846V14.5154H0V12.8154C0 12.6846 0.986547 9.15387 4.03587 9.15387Z" fill="#50657D"/>
<path d="M7.17496 3.92308C7.17496 1.7 8.34088 0 9.86554 0C11.3902 0 12.5561 1.7 12.5561 3.92308C12.5561 6.14615 11.3902 7.84615 9.86554 7.84615C8.34088 7.84615 7.17496 6.14615 7.17496 3.92308ZM9.86554 10.4615C5.73998 10.4615 4.48438 14.7769 4.48438 14.7769V17H15.2467V14.7769C15.2467 14.7769 13.9911 10.4615 9.86554 10.4615Z" fill="#50657D"/>
</svg>
