<svg width="10" height="10" viewBox="0 0 10 10" fill="none" xmlns="http://www.w3.org/2000/svg">
<path d="M10 5C10 2.23858 7.76142 0 5 0C2.23858 0 0 2.23858 0 5C0 7.76142 2.23858 10 5 10C7.76142 10 10 7.76142 10 5Z" fill="#29B39A"/>
<g opacity="0.2">
<path opacity="0.2" d="M4.6875 2.52534V3.75018H2.8125C2.46734 3.75018 2.1875 4.03002 2.1875 4.37518V5.62518C2.1875 5.97034 2.46734 6.25018 2.8125 6.25018H4.6875V7.47502C4.6875 7.90033 4.97891 8.01924 5.33516 7.73908L8.17031 5.5094C8.52656 5.22924 8.52656 4.77096 8.17031 4.4908L5.335 2.26127C4.97891 1.98127 4.6875 2.10002 4.6875 2.52534Z" fill="#231F20"/>
</g>
<path d="M2.5 6.25C2.15484 6.25 1.875 5.97016 1.875 5.625L1.875 4.375C1.875 4.02984 2.15484 3.75 2.5 3.75L6.25 3.75C6.59516 3.75 6.875 4.02984 6.875 4.375V5.625C6.875 5.97016 6.59516 6.25 6.25 6.25H2.5Z" fill="white"/>
<path d="M4.375 2.52516C4.375 2.09985 4.66641 1.98094 5.02266 2.2611L7.85781 4.49078C8.21406 4.77094 8.21406 5.22922 7.85781 5.50938L5.02266 7.73891C4.66641 8.01891 4.375 7.90016 4.375 7.47485V2.52516Z" fill="white"/>
</svg>
